<?xml version="1.0" encoding="UTF-8"?>
<svg width="98px" height="32px" viewBox="0 0 98 32" version="1.1" xmlns="http://www.w3.org/2000/svg" xmlns:xlink="http://www.w3.org/1999/xlink">
    <!-- Generator: Sketch 42 (36781) - http://www.bohemiancoding.com/sketch -->
    <title>Logo</title>
    <desc>Created with Sketch.</desc>
    <defs>
        <linearGradient x1="119.848704%" y1="0%" x2="119.848704%" y2="100%" id="linearGradient-1">
            <stop stop-color="#FF70EA" offset="0%"></stop>
            <stop stop-color="#5F9FFF" offset="100%"></stop>
        </linearGradient>
        <path d="M70.3248479,35.3791956 L70.9371008,41.657385 L66.6426438,37.8037957 L60.1995316,41.6672651 L50,35.5991489 L50,23.5996122 L60.0516634,17.5080241 L70.3248479,23.6824675 L70.3248479,35.3791956 Z M93.2845074,35.3878911 L93.3480467,19.8060778 L90.8525237,21.5917957 L90.8525237,34.0918208 L83.1164024,38.6836668 L75.3802812,34.0918208 L75.4078495,21.6607676 L72.8847582,19.8060778 L72.8847582,35.6224362 L83.158343,41.7448974 L89.6202186,37.8206329 L93.8959122,41.657385 L93.2845074,35.3878911 Z M116.492023,35.3791956 L117.104276,41.657385 L112.809819,37.8037957 L106.366707,41.6672651 L96.1671752,35.5991489 L96.1671752,23.5996122 L106.218839,17.5080241 L113.443083,22.2191748 L113.443083,13.8144709 L116.492023,12 L116.492023,23.6824675 L116.492023,35.3791956 Z M145.536298,37.0345398 L148,38.9387694 L148,42 L143.219114,38.4239876 L137.810296,41.6672651 L127.610765,35.5991489 L127.610765,23.5996122 L137.662428,17.5080241 L147.935613,23.6824675 L147.935613,35.5958437 L145.536298,37.0345398 Z M143.373866,35.3631665 L145.504477,34.0855929 L145.504477,25.0165634 L137.68404,20.316283 L130.032235,24.95349 L130.032235,34.088109 L137.796604,38.7074481 L141.016674,36.7766043 L137.768356,34.3469234 L137.768356,31.0305902 L143.373866,35.3631665 Z M120.798799,21.5917957 L123.543875,23.122411 L123.543875,37.9183591 L120.798799,41.7448974 L120.798799,21.5917957 Z M120.798799,15.4693344 L123.543875,16.9999498 L123.543875,20.316283 L120.798799,18.7856676 L120.798799,15.4693344 Z M98.5886449,34.088109 L106.353014,38.7074481 L114.060887,34.0855929 L114.060887,25.0165634 L106.24045,20.316283 L98.5886449,24.95349 L98.5886449,34.088109 Z M52.4214697,34.088109 L60.1858391,38.7074481 L67.8937122,34.0855929 L67.8937122,25.0165634 L60.0732748,20.316283 L52.4214697,24.95349 L52.4214697,34.088109 Z" id="path-2"></path>
        <filter x="-50%" y="-50%" width="200%" height="200%" filterUnits="objectBoundingBox" id="filter-3">
            <feOffset dx="0" dy="2" in="SourceAlpha" result="shadowOffsetOuter1"></feOffset>
            <feColorMatrix values="0 0 0 0 0   0 0 0 0 0   0 0 0 0 0  0 0 0 0.249547101 0" type="matrix" in="shadowOffsetOuter1"></feColorMatrix>
        </filter>
    </defs>
    <g id="Desktop" stroke="none" stroke-width="1" fill="none" fill-rule="evenodd">
        <g id="Main" transform="translate(-50.000000, -12.000000)">
            <g id="Navigation">
                <g id="Logo">
                    <use fill="black" fill-opacity="1" filter="url(#filter-3)" xlink:href="#path-2"></use>
                    <use fill="url(#linearGradient-1)" fill-rule="evenodd" xlink:href="#path-2"></use>
                </g>
            </g>
        </g>
    </g>
</svg>